<svg width="97" height="97" viewBox="0 0 97 97" fill="none" xmlns="http://www.w3.org/2000/svg">
<circle cx="48.5" cy="48.5" r="45.5" fill="#F2F2F2" stroke="black" stroke-width="6"/>
<path d="M71.9375 43.5703L71.6445 50.6992C68.5195 51.0247 65.4596 51.2526 62.4648 51.3828C59.5352 51.513 56.5404 51.6758 53.4805 51.8711C53.4805 55.3216 53.513 58.7721 53.5781 62.2227C53.7083 65.6081 53.8385 69.026 53.9688 72.4766L45.2773 72.3789C45.0169 68.9935 44.8216 65.6406 44.6914 62.3203C44.6263 58.9349 44.4961 55.5169 44.3008 52.0664H25.6484L25.0625 44.5469C28.1875 44.5469 31.3125 44.4818 34.4375 44.3516C37.6276 44.2214 40.7852 44.0911 43.9102 43.9609L43.5195 25.3086L51.918 25.2109C52.1133 28.3359 52.3411 31.3958 52.6016 34.3906C52.862 37.3854 53.1549 40.4453 53.4805 43.5703C54.9779 43.5052 56.4753 43.4401 57.9727 43.375C59.5352 43.3099 61.0651 43.2773 62.5625 43.2773C64.0599 43.2773 65.5898 43.3099 67.1523 43.375C68.7799 43.4401 70.375 43.5052 71.9375 43.5703Z" fill="#E0DA4C"/>
<path d="M61.8378 28.8402L66.7523 34.0127C64.8108 36.483 62.8445 38.8385 60.8534 41.0793C58.9076 43.2734 56.9399 45.5369 54.9502 47.8698C57.4276 50.2716 59.9277 52.65 62.4504 55.005C64.9717 57.268 67.5163 59.5537 70.0843 61.862L63.9644 68.0342C61.3525 65.8647 58.8093 63.6711 56.3347 61.4535C53.8588 59.1437 51.3141 56.8581 48.7008 54.5965L35.7175 67.9885L29.9108 63.175C32.086 60.9314 34.2145 58.6424 36.2962 56.3081C38.4232 53.927 40.5276 51.5693 42.6093 49.235L28.9455 36.5322L34.7213 30.4343C37.1009 32.4693 39.4564 34.4356 41.7879 36.3332C44.1193 38.2308 46.5202 40.1504 48.9905 42.0919C49.986 40.9715 50.9816 39.851 51.9771 38.7306C53.018 37.5635 54.0595 36.4423 55.1018 35.3673C56.1441 34.2922 57.2324 33.2164 58.3668 32.1398C59.5464 31.0166 60.7035 29.9167 61.8378 28.8402Z" fill="#E0DA4C"/>
</svg>
